<?xml version="1.0" standalone="no"?>
<!DOCTYPE svg PUBLIC "-//W3C//DTD SVG 20010904//EN"
 "http://www.w3.org/TR/2001/REC-SVG-20010904/DTD/svg10.dtd">
<svg version="1.0" xmlns="http://www.w3.org/2000/svg"
 width="170.000000pt" height="170.000000pt" viewBox="0 0 170.000000 170.000000"
 preserveAspectRatio="xMidYMid meet">
<metadata>
Created by potrace 1.11, written by Peter Selinger 2001-2013
</metadata>
<g transform="translate(0.000000,170.000000) scale(0.100000,-0.100000)"
fill="#000000" stroke="none">
<path d="M370 1590 c0 -5 -7 -10 -15 -10 -9 0 -31 -16 -50 -35 l-35 -34 0
-441 0 -441 35 -34 c19 -19 41 -35 50 -35 8 0 15 -4 15 -10 0 -6 50 -10 130
-10 123 0 130 -1 130 -20 0 -11 5 -20 10 -20 6 0 10 -13 10 -30 0 -16 5 -30
10 -30 6 0 10 -9 10 -20 0 -11 5 -20 10 -20 6 0 10 -13 10 -30 0 -16 5 -30 10
-30 6 0 10 -9 10 -20 0 -11 5 -20 10 -20 6 0 10 -9 10 -20 0 -11 5 -20 10 -20
6 0 10 -13 10 -30 0 -16 5 -30 10 -30 6 0 10 -13 10 -30 0 -16 5 -30 10 -30 6
0 10 -9 10 -20 0 -11 5 -20 10 -20 6 0 10 -13 10 -30 0 -23 4 -30 20 -30 13 0
20 7 20 20 0 11 5 20 10 20 6 0 10 14 10 30 0 17 5 30 10 30 6 0 10 9 10 20 0
11 5 20 10 20 6 0 10 14 10 30 0 17 5 30 10 30 6 0 10 14 10 30 0 17 5 30 10
30 6 0 10 9 10 20 0 11 5 20 10 20 6 0 10 9 10 20 0 11 5 20 10 20 6 0 10 14
10 30 0 17 5 30 10 30 6 0 10 9 10 20 0 11 5 20 10 20 6 0 10 14 10 30 l0 30
130 0 c80 0 130 4 130 10 0 6 7 10 15 10 9 0 31 16 50 35 27 26 35 43 35 70 0
21 5 35 13 35 9 0 9 2 -1 8 -16 11 -15 134 2 125 6 -3 5 0 -1 8 -10 10 -13 93
-13 341 l0 329 -45 44 -44 45 -466 0 c-303 0 -465 -3 -465 -10z"/>
</g>
</svg>
